<svg width="82" height="23" viewBox="0 0 82 23" fill="none" xmlns="http://www.w3.org/2000/svg">
<path d="M4.76744 14.3028V7.62834L11.6802 4.05276L7.15116 1.43066L0 5.00625V11.919L4.76744 14.3028Z" fill="#097EFF"/>
<path d="M9.05678 9.53513L9.05678 16.2096L2.14399 19.7851L6.67306 22.4072L13.8242 18.8316L13.8242 11.9189L9.05678 9.53513Z" fill="#097EFF"/>
<path d="M19.302 5.01318V18H22.1576V5.01318H19.302ZM25.7856 5.01318V18H28.4593V9.30574H28.4957L33.8978 18H36.7534V5.01318H34.0797V13.7256H34.0433L28.623 5.01318H25.7856ZM42.6784 11.5612C42.6784 10.9912 42.7391 10.4395 42.8603 9.90597C42.9937 9.37243 43.1999 8.89952 43.4788 8.48724C43.7576 8.06284 44.1214 7.72938 44.5701 7.48686C45.0187 7.23221 45.5644 7.10489 46.2071 7.10489C46.8497 7.10489 47.3954 7.23221 47.8441 7.48686C48.2927 7.72938 48.6565 8.06284 48.9354 8.48724C49.2143 8.89952 49.4144 9.37243 49.5356 9.90597C49.669 10.4395 49.7357 10.9912 49.7357 11.5612C49.7357 12.1068 49.669 12.6404 49.5356 13.1618C49.4144 13.6711 49.2143 14.1318 48.9354 14.5441C48.6565 14.9564 48.2927 15.2899 47.8441 15.5445C47.3954 15.787 46.8497 15.9083 46.2071 15.9083C45.5644 15.9083 45.0187 15.787 44.5701 15.5445C44.1214 15.2899 43.7576 14.9564 43.4788 14.5441C43.1999 14.1318 42.9937 13.6711 42.8603 13.1618C42.7391 12.6404 42.6784 12.1068 42.6784 11.5612ZM39.8228 11.5612C39.8228 12.507 39.9683 13.3922 40.2593 14.2167C40.5504 15.0292 40.9687 15.7385 41.5144 16.3448C42.06 16.9511 42.7269 17.4301 43.5151 17.7817C44.3154 18.1213 45.2128 18.291 46.2071 18.291C47.2135 18.291 48.1108 18.1213 48.899 17.7817C49.6872 17.4301 50.3541 16.9511 50.8998 16.3448C51.4455 15.7385 51.8638 15.0292 52.1548 14.2167C52.4458 13.3922 52.5914 12.507 52.5914 11.5612C52.5914 10.5911 52.4458 9.69377 52.1548 8.86921C51.8638 8.03252 51.4455 7.30497 50.8998 6.68655C50.3541 6.06813 49.6872 5.58309 48.899 5.23144C48.1108 4.87979 47.2135 4.70397 46.2071 4.70397C45.2128 4.70397 44.3154 4.87979 43.5151 5.23144C42.7269 5.58309 42.06 6.06813 41.5144 6.68655C40.9687 7.30497 40.5504 8.03252 40.2593 8.86921C39.9683 9.69377 39.8228 10.5911 39.8228 11.5612ZM61.7014 18L66.0121 5.01318H63.0656L60.1372 14.144H60.1008L57.2087 5.01318H54.2803L58.482 18H61.7014ZM70.5306 11.5612C70.5306 10.9912 70.5913 10.4395 70.7125 9.90597C70.8459 9.37243 71.052 8.89952 71.3309 8.48724C71.6098 8.06284 71.9736 7.72938 72.4223 7.48686C72.8709 7.23221 73.4166 7.10489 74.0593 7.10489C74.7019 7.10489 75.2476 7.23221 75.6963 7.48686C76.1449 7.72938 76.5087 8.06284 76.7876 8.48724C77.0665 8.89952 77.2666 9.37243 77.3878 9.90597C77.5212 10.4395 77.5879 10.9912 77.5879 11.5612C77.5879 12.1068 77.5212 12.6404 77.3878 13.1618C77.2666 13.6711 77.0665 14.1318 76.7876 14.5441C76.5087 14.9564 76.1449 15.2899 75.6963 15.5445C75.2476 15.787 74.7019 15.9083 74.0593 15.9083C73.4166 15.9083 72.8709 15.787 72.4223 15.5445C71.9736 15.2899 71.6098 14.9564 71.3309 14.5441C71.052 14.1318 70.8459 13.6711 70.7125 13.1618C70.5913 12.6404 70.5306 12.1068 70.5306 11.5612ZM67.675 11.5612C67.675 12.507 67.8205 13.3922 68.1115 14.2167C68.4025 15.0292 68.8209 15.7385 69.3665 16.3448C69.9122 16.9511 70.5791 17.4301 71.3673 17.7817C72.1676 18.1213 73.0649 18.291 74.0593 18.291C75.0657 18.291 75.963 18.1213 76.7512 17.7817C77.5394 17.4301 78.2063 16.9511 78.752 16.3448C79.2976 15.7385 79.716 15.0292 80.007 14.2167C80.298 13.3922 80.4435 12.507 80.4435 11.5612C80.4435 10.5911 80.298 9.69377 80.007 8.86921C79.716 8.03252 79.2976 7.30497 78.752 6.68655C78.2063 6.06813 77.5394 5.58309 76.7512 5.23144C75.963 4.87979 75.0657 4.70397 74.0593 4.70397C73.0649 4.70397 72.1676 4.87979 71.3673 5.23144C70.5791 5.58309 69.9122 6.06813 69.3665 6.68655C68.8209 7.30497 68.4025 8.03252 68.1115 8.86921C67.8205 9.69377 67.675 10.5911 67.675 11.5612Z" fill="black"/>
</svg>
